<?xml version="1.0" standalone="no"?>
<!DOCTYPE svg PUBLIC "-//W3C//DTD SVG 20010904//EN"
 "http://www.w3.org/TR/2001/REC-SVG-20010904/DTD/svg10.dtd">
<svg version="1.0" xmlns="http://www.w3.org/2000/svg"
 width="40.000000pt" height="10.000000pt" viewBox="0 0 40.000000 10.000000"
 preserveAspectRatio="xMidYMid meet">
<metadata>
Created by potrace 1.16, written by Peter Selinger 2001-2019
</metadata>
<g transform="translate(0.000000,10.000000) scale(0.005000,-0.002016)"
fill="#000000" stroke="none">
<path d="M1319 4740 c-232 -50 -395 -208 -477 -463 -24 -75 -26 -97 -26 -247
-1 -162 0 -167 33 -260 18 -52 42 -107 52 -121 10 -15 19 -30 19 -34 0 -3 21
-33 46 -66 49 -64 124 -125 198 -161 l46 -22 -2 -58 c-4 -113 23 -112 416 9
43 13 139 36 215 50 219 41 379 23 490 -56 16 -12 32 -21 36 -21 4 0 24 -13
45 -30 21 -16 41 -30 44 -30 5 0 59 -40 186 -140 617 -484 740 -591 829 -720
83 -121 87 -147 37 -223 -106 -159 -284 -337 -502 -502 -87 -66 -332 -205
-360 -205 -4 0 -35 -11 -69 -24 -104 -42 -208 -60 -345 -60 -153 0 -242 24
-401 110 -69 37 -201 87 -262 100 -224 47 -449 -17 -601 -169 -118 -119 -186
-284 -208 -508 -12 -112 -13 -117 -42 -137 -17 -12 -58 -42 -91 -67 -33 -24
-70 -50 -81 -57 -89 -53 -232 -186 -261 -243 -8 -16 -21 -37 -28 -45 -30 -37
-69 -220 -47 -220 9 0 57 52 102 109 43 56 156 185 181 208 13 11 53 36 88 54
63 33 66 34 190 32 117 -1 134 -3 235 -37 60 -20 123 -43 140 -51 139 -63 307
-118 398 -130 84 -11 228 28 297 82 47 37 107 99 133 138 27 41 81 184 99 264
13 60 63 166 100 212 41 52 89 66 244 73 115 6 265 25 318 42 11 3 28 13 38
22 43 38 58 50 130 104 89 67 246 173 309 210 402 232 725 378 1055 476 l101
30 114 -30 c63 -16 157 -40 207 -54 51 -13 103 -24 115 -24 13 0 52 -9 88 -21
36 -11 106 -29 155 -39 92 -19 175 -40 370 -91 61 -16 118 -29 128 -29 9 0 59
-11 110 -24 50 -14 151 -39 222 -56 310 -74 386 -93 491 -121 61 -16 126 -29
143 -29 18 0 80 -11 139 -24 59 -13 127 -27 152 -31 25 -3 97 -17 160 -30 256
-52 600 -73 600 -37 0 4 -28 19 -62 34 -141 58 -218 88 -228 88 -6 0 -29 9
-53 20 -23 11 -67 28 -97 38 -46 16 -141 51 -335 123 -127 48 -190 71 -255 94
-41 14 -88 32 -105 40 -16 7 -57 22 -90 33 -33 11 -98 35 -145 52 -47 17 -114
42 -150 55 -36 12 -108 39 -160 58 -52 19 -122 45 -155 57 -33 12 -103 38
-155 57 -88 34 -187 70 -302 111 -26 9 -47 21 -45 25 9 30 325 167 662 287 44
15 94 33 110 39 42 16 336 111 480 156 66 20 149 47 185 60 36 12 88 29 115
38 243 77 494 171 690 259 175 79 215 101 215 116 0 17 -21 16 -315 -23 -284
-38 -332 -45 -425 -60 -47 -8 -173 -28 -280 -45 -107 -17 -269 -44 -360 -61
-423 -76 -768 -141 -890 -166 -41 -8 -100 -20 -130 -25 -30 -5 -116 -22 -190
-38 -74 -15 -205 -42 -290 -60 -141 -29 -307 -65 -465 -101 -82 -19 -262 -17
-360 4 -175 38 -414 137 -585 243 -30 18 -66 39 -80 47 -33 16 -144 88 -150
97 -3 4 -34 26 -70 50 -36 23 -75 52 -87 63 -12 11 -31 25 -41 31 -42 24 -287
227 -381 316 -223 210 -249 240 -289 345 -38 98 -102 325 -102 361 0 31 -62
199 -95 259 -18 33 -60 88 -93 121 -130 134 -253 203 -403 228 -121 20 -172
19 -280 -4z m303 -272 c127 -55 212 -122 288 -224 137 -182 141 -468 9 -618
-104 -118 -308 -164 -513 -116 -181 42 -309 129 -388 264 -39 66 -41 73 -45
175 -7 144 7 234 50 323 41 84 98 145 177 191 70 40 110 47 242 42 93 -4 116
-9 180 -37z m2776 -2178 c27 -17 32 -25 32 -59 0 -31 -6 -44 -26 -60 -37 -29
-70 -26 -105 8 -35 35 -37 70 -6 98 40 37 61 40 105 13z m-1438 -815 c0 -9
-148 -101 -230 -141 -47 -24 -143 -60 -215 -81 -127 -37 -134 -38 -295 -38
-160 0 -167 1 -235 29 -59 25 -160 86 -143 86 3 0 31 -12 62 -26 65 -30 201
-54 301 -54 200 1 439 68 685 195 77 39 70 36 70 30z m-1523 -85 c212 -27 409
-177 475 -362 31 -84 32 -219 3 -297 -27 -72 -98 -136 -196 -176 -65 -26 -89
-30 -189 -33 -108 -3 -120 -2 -200 28 -102 38 -156 72 -233 147 -67 66 -104
126 -123 197 -60 225 90 463 311 495 33 5 62 9 65 10 3 0 42 -4 87 -9z"/>
</g>
</svg>
